Coordinates
version=1
nRows=13
nColumns=40
inDegrees=yes

Units are S.I. units (second, meters, Newtons, ...)
Angles are in degrees.

endheader
time	pelvis_tilt	pelvis_list	pelvis_rotation	pelvis_tx	pelvis_ty	pelvis_tz	hip_flexion_r	hip_adduction_r	hip_rotation_r	knee_angle_r	knee_angle_r_beta	ankle_angle_r	subtalar_angle_r	mtp_angle_r	hip_flexion_l	hip_adduction_l	hip_rotation_l	knee_angle_l	knee_angle_l_beta	ankle_angle_l	subtalar_angle_l	mtp_angle_l	lumbar_extension	lumbar_bending	lumbar_rotation	arm_flex_r	arm_add_r	arm_rot_r	elbow_flex_r	pro_sup_r	wrist_flex_r	wrist_dev_r	arm_flex_l	arm_add_l	arm_rot_l	elbow_flex_l	pro_sup_l	wrist_flex_l	wrist_dev_l
     15.18000000	     -3.53390614	     -4.66493837	     -1.54738185	      0.97662441	      0.91691224	      0.41566214	     18.88712251	     -7.38229967	     -5.07001858	     63.48586733	     63.48586733	     -1.05972280	    -16.76538420	      0.90415085	     20.03014687	     -3.24287249	     -2.93303687	     33.36430063	     33.36430063	     18.93683176	    -17.18518247	      8.26670746	    -10.03638624	      6.87069193	      3.18346672	      2.22331396	    -13.41778325	    -14.16797233	     25.07053611	     45.64009965	      0.00000000	      0.00000000	     25.54332331	    -17.78465361	     -1.62780426	     60.22060984	     45.99890648	      0.00000000	      0.00000000
     15.19871429	     -3.57492442	     -4.73631118	     -2.25254847	      0.97465393	      0.91711626	      0.41504904	     20.64808545	     -7.05153364	     -4.77261812	     64.27982898	     64.27982898	     -0.38727155	    -17.11057237	      0.75338374	     19.59400587	     -3.42181273	     -3.53414055	     33.19489653	     33.19489653	     19.25927372	    -17.16222355	      8.28516484	    -10.16970717	      6.97160315	      2.77389235	      0.42804325	    -12.94232760	    -14.18912667	     24.47612836	     45.66051333	      0.00000000	      0.00000000	     26.77925838	    -18.60195934	     -2.07624985	     60.89789008	     46.06376857	      0.00000000	      0.00000000
     15.21742857	     -3.63779299	     -4.83417291	     -2.99859221	      0.97263747	      0.91750543	      0.41454829	     22.37476750	     -6.63158796	     -4.51783097	     64.76441440	     64.76441440	      0.40261249	    -17.31789985	      1.01822411	     19.11212985	     -3.63291113	     -4.17429580	     32.92024655	     32.92024655	     19.53687819	    -17.11824653	      8.34206748	    -10.33267511	      7.09066296	      2.66341320	     -1.67474993	    -12.58018582	    -14.25283965	     24.07373495	     45.67946570	      0.00000000	      0.00000000	     28.08201536	    -19.17430467	     -2.65644358	     61.96839068	     46.15267876	      0.00000000	      0.00000000
     15.23614286	     -3.68142823	     -4.93198877	     -3.76062977	      0.97065361	      0.91817538	      0.41422633	     23.95440434	     -6.15382231	     -4.31664391	     64.80929841	     64.80929841	      1.32046485	    -17.42118713	      1.64244244	     18.51417866	     -3.84113079	     -4.84114383	     32.48870303	     32.48870303	     19.77954210	    -17.04580070	      8.36067698	    -10.52752715	      7.21370006	      2.50837526	     -3.80841587	    -12.23773863	    -14.36700815	     24.09840525	     45.68837325	      0.00000000	      0.00000000	     29.32868040	    -19.79663428	     -3.38031666	     63.01778367	     46.25895217	      0.00000000	      0.00000000
     15.25485714	     -3.78030510	     -5.04791655	     -4.53194515	      0.96861120	      0.91909233	      0.41413728	     25.45998770	     -5.58973185	     -4.16418464	     64.36849310	     64.36849310	      2.41260837	    -17.35892601	      2.94689193	     17.89624430	     -4.08556673	     -5.56812563	     31.89620865	     31.89620865	     19.82225292	    -16.96037580	      8.15547923	    -10.68427027	      7.37219571	      2.28031529	     -6.14094785	    -11.92696196	    -14.56843733	     25.24513573	     45.68459921	      0.00000000	      0.00000000	     30.43494112	    -20.40247528	     -4.42849659	     64.00934635	     46.42816119	      0.00000000	      0.00000000
     15.27357143	     -3.94385067	     -5.11015577	     -5.30693826	      0.96658158	      0.92029688	      0.41427013	     26.78119797	     -5.07786780	     -4.11364629	     63.20608053	     63.20608053	      3.08314557	    -17.30879927	      2.87763537	     17.23152777	     -4.25106477	     -6.27872590	     31.07794448	     31.07794448	     19.88269870	    -16.83897929	      8.25927507	    -10.69438664	      7.46888515	      1.90303932	     -7.68186122	    -11.67067553	    -14.58441619	     24.86314675	     45.69475665	      0.00000000	      0.00000000	     31.52416593	    -21.31877439	     -4.85692515	     64.45808502	     46.48167411	      0.00000000	      0.00000000
     15.29228571	     -4.07556051	     -5.17124103	     -6.13361783	      0.96461635	      0.92187145	      0.41476308	     27.81031007	     -4.49935081	     -4.05881381	     61.33643858	     61.33643858	      3.62465195	    -17.21498099	      2.43856191	     16.36309720	     -4.45077145	     -7.18788813	     29.94801095	     29.94801095	     19.55336371	    -16.63949025	      7.52481091	    -10.81768164	      7.53824736	      1.86972090	     -9.73260947	    -11.45914020	    -14.68002474	     26.02840723	     45.68576300	      0.00000000	      0.00000000	     32.53514771	    -21.74691686	     -5.85227618	     65.51493473	     46.64186764	      0.00000000	      0.00000000
     15.31100000	     -4.32061236	     -5.23103409	     -6.92850884	      0.96263039	      0.92360390	      0.41550818	     28.70057386	     -3.89537248	     -4.08358000	     58.80830488	     58.80830488	      4.26949788	    -16.87524875	      2.28400553	     15.55649742	     -4.61559687	     -7.99173692	     28.69966767	     28.69966767	     19.46948683	    -16.34980657	      7.64766225	    -10.72775216	      7.62592885	      1.63480334	    -10.97112915	    -11.29512981	    -14.69101563	     25.84061517	     45.69196379	      0.00000000	      0.00000000	     33.45046487	    -22.49589756	     -6.22672517	     65.97177329	     46.69110974	      0.00000000	      0.00000000
     15.32971429	     -4.56060662	     -5.27322445	     -7.73128283	      0.96068049	      0.92550214	      0.41654049	     29.30437267	     -3.29505313	     -4.14911603	     55.61373403	     55.61373403	      4.85449999	    -16.26533071	      1.91675517	     14.64823793	     -4.76730914	     -8.89441523	     27.26958010	     27.26958010	     19.28628579	    -15.95059487	      7.63404529	    -10.67138688	      7.68703907	      1.49613600	    -12.11691958	    -11.15084173	    -14.72888962	     25.89823634	     45.69087345	      0.00000000	      0.00000000	     34.33020783	    -23.14419930	     -6.67322000	     66.57337239	     46.74775195	      0.00000000	      0.00000000
     15.34842857	     -4.85005096	     -5.28342267	     -8.53343644	      0.95873999	      0.92723627	      0.41782052	     29.58659616	     -2.74846723	     -4.31033890	     51.59965833	     51.59965833	      4.33971553	    -15.72391599	     -1.83221272	     13.65884771	     -4.89530823	     -9.94238999	     25.53252956	     25.53252956	     18.26166233	    -15.64053868	      5.51821525	    -10.64318473	      7.71719828	      1.43523281	    -13.84748732	    -10.99849802	    -14.85289746	     28.03752447	     45.64228282	      0.00000000	      0.00000000	     34.93252828	    -23.50809277	     -7.96599866	     68.06203548	     46.92664053	      0.00000000	      0.00000000
     15.36714286	     -5.14352965	     -5.32671212	     -9.25021499	      0.95683026	      0.92899291	      0.41928125	     29.68466383	     -2.11061613	     -4.45941665	     47.27625045	     47.27625045	      4.87499963	    -14.35498436	     -1.98898320	     12.75373902	     -5.00687292	    -10.75051111	     23.98052831	     23.98052831	     18.06821277	    -15.14525574	      5.63319507	    -10.50194916	      7.77989831	      1.25929858	    -14.54432349	    -10.94051439	    -14.81427404	     27.98429267	     45.64419456	      0.00000000	      0.00000000	     35.71336113	    -24.13242502	     -8.16415007	     68.34699395	     46.95758220	      0.00000000	      0.00000000
     15.38585714	     -5.46147368	     -5.27281479	     -9.98832870	      0.95505981	      0.93033721	      0.42095156	     29.47811732	     -1.62126916	     -4.73623648	     42.32573251	     42.32573251	      4.37602456	    -12.67258593	     -5.16644802	     11.74521369	     -5.01742736	    -11.78874816	     22.12837520	     22.12837520	     17.04162583	    -14.76835413	      3.57076718	    -10.37032191	      7.75966722	      1.21884708	    -15.56333064	    -10.84195345	    -14.51995012	     29.13396827	     45.62123862	      0.00000000	      0.00000000	     36.52261527	    -24.63385661	     -8.75917710	     69.24327608	     47.08229843	      0.00000000	      0.00000000
     15.40457143	     -5.71897167	     -5.18807167	    -10.64291083	      0.95335869	      0.93147394	      0.42273111	     29.11694923	     -1.14867604	     -5.01851894	     37.37891148	     37.37891148	      4.72403166	    -10.01013598	     -5.10397526	     10.79222313	     -4.95884424	    -12.65927401	     20.53673756	     20.53673756	     16.82789335	    -14.12026302	      3.44235225	    -10.26006458	      7.70127088	      1.17890833	    -15.98501064	    -10.74913377	    -14.43969080	     29.21253337	     45.62167356	      0.00000000	      0.00000000	     37.39136517	    -25.15756702	     -8.96126490	     69.67433560	     47.12171078	      0.00000000	      0.00000000
